<svg width="42" height="42" viewBox="0 0 42 42" fill="none" xmlns="http://www.w3.org/2000/svg">
<path d="M6.72011 1.67999V5.03999H3.36011V40.32H38.6401V11.76H25.2001V5.03999H21.8401V1.67999H6.72011ZM8.40011 3.35999H20.1601V6.71999H23.5201V38.64H15.9601V32.76H12.6001V38.64H5.04011V6.71999H8.40011V3.35999ZM8.40011 8.39999V10.08H10.0801V8.39999H8.40011ZM11.7601 8.39999V10.08H13.4401V8.39999H11.7601ZM15.1201 8.39999V10.08H16.8001V8.39999H15.1201ZM18.4801 8.39999V10.08H20.1601V8.39999H18.4801ZM8.40011 12.6V15.96H10.0801V12.6H8.40011ZM11.7601 12.6V15.96H13.4401V12.6H11.7601ZM15.1201 12.6V15.96H16.8001V12.6H15.1201ZM18.4801 12.6V15.96H20.1601V12.6H18.4801ZM25.2001 13.44H36.9601V38.64H25.2001V13.44ZM26.8801 15.12V16.8H28.5601V15.12H26.8801ZM30.2401 15.12V16.8H31.9201V15.12H30.2401ZM33.6001 15.12V16.8H35.2801V15.12H33.6001ZM8.40011 17.64V21H10.0801V17.64H8.40011ZM11.7601 17.64V21H13.4401V17.64H11.7601ZM15.1201 17.64V21H16.8001V17.64H15.1201ZM18.4801 17.64V21H20.1601V17.64H18.4801ZM26.8801 18.48V20.16H28.5601V18.48H26.8801ZM30.2401 18.48V20.16H31.9201V18.48H30.2401ZM33.6001 18.48V20.16H35.2801V18.48H33.6001ZM26.8801 21.84V23.52H28.5601V21.84H26.8801ZM30.2401 21.84V23.52H31.9201V21.84H30.2401ZM33.6001 21.84V23.52H35.2801V21.84H33.6001ZM8.40011 22.68V26.04H10.0801V22.68H8.40011ZM11.7601 22.68V26.04H13.4401V22.68H11.7601ZM15.1201 22.68V26.04H16.8001V22.68H15.1201ZM18.4801 22.68V26.04H20.1601V22.68H18.4801ZM26.8801 25.2V26.88H28.5601V25.2H26.8801ZM30.2401 25.2V26.88H31.9201V25.2H30.2401ZM33.6001 25.2V26.88H35.2801V25.2H33.6001ZM8.40011 27.72V31.08H10.0801V27.72H8.40011ZM11.7601 27.72V31.08H13.4401V27.72H11.7601ZM15.1201 27.72V31.08H16.8001V27.72H15.1201ZM18.4801 27.72V31.08H20.1601V27.72H18.4801ZM26.8801 28.56V30.24H28.5601V28.56H26.8801ZM30.2401 28.56V30.24H31.9201V28.56H30.2401ZM33.6001 28.56V30.24H35.2801V28.56H33.6001ZM26.8801 31.92V33.6H28.5601V31.92H26.8801ZM30.2401 31.92V33.6H31.9201V31.92H30.2401ZM33.6001 31.92V33.6H35.2801V31.92H33.6001ZM8.40011 32.76V36.96H10.0801V32.76H8.40011ZM18.4801 32.76V36.96H20.1601V32.76H18.4801ZM26.8801 35.28V36.96H28.5601V35.28H26.8801ZM30.2401 35.28V36.96H31.9201V35.28H30.2401ZM33.6001 35.28V36.96H35.2801V35.28H33.6001Z" fill="white"/>
</svg>
