<svg width="42" height="42" viewBox="0 0 42 42" fill="none" xmlns="http://www.w3.org/2000/svg">
<path d="M2.38875 10.9199C1.07953 10.9199 0 11.9995 0 13.3087V35.2799C0 36.6745 1.12547 37.7999 2.52 37.7999H5.95875C6.35906 40.1821 8.42953 41.9999 10.92 41.9999C13.4105 41.9999 15.4809 40.1821 15.8812 37.7999H23.6512C24.2714 37.7999 24.8259 37.5374 25.2525 37.1437C25.6889 37.5276 26.2467 37.7934 26.88 37.7999H27.7987C28.1991 40.1821 30.2695 41.9999 32.76 41.9999C35.5327 41.9999 37.8 39.7326 37.8 36.9599C37.8 34.1873 35.5327 31.9199 32.76 31.9199C30.2695 31.9199 28.1991 33.7377 27.7987 36.1199H26.88C26.7225 36.1199 26.483 36.0116 26.3025 35.8312C26.122 35.6507 26.04 35.4341 26.04 35.2799V19.3199C26.04 19.0049 26.565 18.4799 26.88 18.4799H33.6C34.2595 18.4799 35.1881 19.1854 35.8312 19.9499C35.8378 19.9598 35.8509 19.9663 35.8575 19.9762L35.9888 20.1599H31.92C30.5812 20.1599 29.4 21.2427 29.4 22.6799V26.0399C29.4 26.7388 29.715 27.3524 30.1612 27.7987C30.6075 28.2449 31.2211 28.5599 31.92 28.5599H40.32V35.2799C40.32 35.5949 39.795 36.1199 39.48 36.1199H37.8V37.7999H39.48C40.8745 37.7999 42 36.6745 42 35.2799V27.1949C42 25.2721 40.6612 23.5724 40.6612 23.5724H40.635L37.17 18.9524V18.9262L37.1437 18.8999C36.3694 17.9648 35.2078 16.7999 33.6 16.7999H26.88C26.5814 16.7999 26.3058 16.8623 26.04 16.9574V13.3612C26.04 12.0716 25.0228 10.9199 23.6775 10.9199H2.38875ZM2.38875 12.5999H23.6775C24.0384 12.5999 24.36 12.9477 24.36 13.3612V35.4112C24.36 35.8049 24.0483 36.1199 23.6512 36.1199H15.8812C15.4809 33.7377 13.4105 31.9199 10.92 31.9199C8.42953 31.9199 6.35906 33.7377 5.95875 36.1199H2.52C2.205 36.1199 1.68 35.5916 1.68 35.2799V13.3087C1.68 12.9149 1.98844 12.5999 2.38875 12.5999ZM31.92 21.8399H37.2487L39.2962 24.5699C39.2962 24.5699 40.0575 25.8726 40.215 26.8799H31.92C31.7789 26.8799 31.5525 26.7749 31.3687 26.5912C31.185 26.4074 31.08 26.181 31.08 26.0399V22.6799C31.08 22.2566 31.5787 21.8399 31.92 21.8399ZM10.92 33.5999C12.787 33.5999 14.28 35.0929 14.28 36.9599C14.28 38.827 12.787 40.3199 10.92 40.3199C9.05297 40.3199 7.56 38.827 7.56 36.9599C7.56 35.0929 9.05297 33.5999 10.92 33.5999ZM32.76 33.5999C34.627 33.5999 36.12 35.0929 36.12 36.9599C36.12 38.827 34.627 40.3199 32.76 40.3199C30.893 40.3199 29.4 38.827 29.4 36.9599C29.4 35.0929 30.893 33.5999 32.76 33.5999Z" fill="black"/>
</svg>
