<svg width="42" height="42" viewBox="0 0 42 42" fill="none" xmlns="http://www.w3.org/2000/svg">
<path d="M15.75 30.1875C15.0251 30.1875 14.4375 30.7752 14.4375 31.5C14.4375 32.2248 15.0251 32.8125 15.75 32.8125H26.25C26.9748 32.8125 27.5625 32.2248 27.5625 31.5C27.5625 30.7752 26.9748 30.1875 26.25 30.1875H15.75Z" fill="#1A1A1A"/>
<path fill-rule="evenodd" clip-rule="evenodd" d="M21 2.1875C19.7608 2.1875 18.6349 2.54244 17.4135 3.13642C16.2327 3.71061 14.8687 4.55716 13.165 5.61456L9.54849 7.85907C7.93641 8.85957 6.64552 9.6607 5.65058 10.4227C4.62026 11.2117 3.82891 12.0153 3.25729 13.0596C2.68686 14.1017 2.43 15.2105 2.30683 16.5212C2.18748 17.7914 2.18748 19.3447 2.1875 21.2926V24.1148C2.18748 27.4465 2.18747 30.0765 2.45473 32.1328C2.7289 34.2422 3.30498 35.9452 4.60663 37.2914C5.91427 38.6442 7.5783 39.2485 9.63832 39.5349C11.6349 39.8125 14.1847 39.8125 17.3982 39.8125H24.6017C27.8152 39.8125 30.3651 39.8125 32.3617 39.5349C34.4216 39.2485 36.0857 38.6442 37.3933 37.2914C38.6949 35.9452 39.271 34.2422 39.5453 32.1328C39.8125 30.0765 39.8125 27.4466 39.8125 24.1148V21.2926C39.8125 19.3447 39.8125 17.7914 39.6931 16.5212C39.57 15.2105 39.313 14.1017 38.7427 13.0596C38.1712 12.0153 37.3798 11.2117 36.3494 10.4227C35.3545 9.6607 34.0636 8.85958 32.4515 7.85909L28.8349 5.61454C27.1313 4.55716 25.7672 3.71059 24.5864 3.13642C23.3651 2.54244 22.2392 2.1875 21 2.1875ZM14.4892 7.88221C16.2668 6.77899 17.5166 6.00518 18.5614 5.4971C19.5793 5.00208 20.3003 4.8125 21 4.8125C21.6996 4.8125 22.4206 5.00208 23.4386 5.49708C24.4834 6.00518 25.7332 6.77899 27.5109 7.88221L31.0109 10.0544C32.6923 11.098 33.8728 11.8324 34.7534 12.5067C35.6102 13.1629 36.103 13.7044 36.4401 14.32C36.7784 14.9378 36.9757 15.6601 37.0797 16.7668C37.1861 17.9 37.1875 19.3301 37.1875 21.3568V24.0187C37.1875 27.4678 37.1849 29.9271 36.9422 31.7945C36.7038 33.6285 36.2547 34.6927 35.5061 35.4671C34.7636 36.2351 33.7524 36.6912 32.0001 36.935C30.2053 37.1845 27.8381 37.1875 24.5 37.1875H17.5C14.1618 37.1875 11.7947 37.1845 9.99988 36.935C8.2475 36.6912 7.2365 36.2351 6.49388 35.4671C5.74527 34.6927 5.29624 33.6285 5.05783 31.7945C4.81511 29.9271 4.8125 27.4678 4.8125 24.0187V21.3568C4.8125 19.3301 4.81383 17.9 4.92032 16.7668C5.0243 15.6601 5.22174 14.9378 5.55991 14.32C5.89689 13.7044 6.38983 13.1629 7.24661 12.5067C8.12718 11.8324 9.30771 11.098 10.9892 10.0544L14.4892 7.88221Z" fill="#1A1A1A"/>
</svg>
